<?xml version="1.0" encoding="utf-8"?>
<!-- Generator: Adobe Illustrator 19.0.0, SVG Export Plug-In . SVG Version: 6.00 Build 0)  -->
<svg version="1.1" id="Layer_1" xmlns="http://www.w3.org/2000/svg" xmlns:xlink="http://www.w3.org/1999/xlink" x="0px" y="0px"
	 viewBox="0 0 500 500" style="enable-background:new 0 0 500 500;" xml:space="preserve">
<style type="text/css">
	.st0{fill:#33547D;}
</style>
<g id="XMLID_1_">
	<circle id="XMLID_3_" class="st0" cx="84.2" cy="293.9" r="15.9"/>
	<circle id="XMLID_4_" class="st0" cx="141.5" cy="294.1" r="11.2"/>
	<circle id="XMLID_5_" class="st0" cx="188.6" cy="294.1" r="5.1"/>
	<path id="XMLID_6_" class="st0" d="M138.4,260.7c-2.8,0-4.9-2.2-4.9-4.9v-20.7c0-7.1-3.4-12.6-11-12.6c-7.6,0-12.3,5.9-12.3,12.7
		v20.5c0,2.7-1.9,4.9-4.9,4.9c-2.9,0-4.9-2.2-4.9-4.9v-20.7c0-7.1-3.7-12.6-11.4-12.6c-7.8,0-12,5.9-12,12.7v20.5
		c0,2.7-2,4.9-4.9,4.9c-2.8,0-4.9-2.2-4.9-4.9v-36.7c0-2.9,1.9-5,4.9-5c3.3,0,4.9,2.3,4.9,5v3.3c2.8-5.5,8.5-8.7,14.6-8.7
		c7.4,0,13,3.7,15.8,9.2c4-6.2,9.9-9.2,17.2-9.2c12.5,0,18.5,8.6,18.5,20.7v21.4C143.3,258.5,141.3,260.7,138.4,260.7z"/>
	<path id="XMLID_9_" class="st0" d="M156.9,195.8c3.1,0,5.7,2.6,5.7,5.7c0,3.1-2.6,5.7-5.7,5.7c-3.1,0-5.7-2.6-5.7-5.7
		C151.2,198.4,153.8,195.8,156.9,195.8z M156.9,260.7c-2.9,0-4.9-2.2-4.9-4.9v-36.8c0-2.7,2.1-4.9,4.9-4.9c2.8,0,4.9,2.2,4.9,4.9
		v36.8C161.8,258.5,159.8,260.7,156.9,260.7z"/>
	<path id="XMLID_10_" class="st0" d="M189.1,230.9l12.3-15.3c0.8-0.9,1.9-1.4,3.2-1.4c2.7,0,4.4,1.8,4.4,4.2c0,0.9-0.3,1.9-1.1,2.8
		l-13.5,16.1l13.7,16.2c0.7,0.8,1.1,1.7,1.1,2.9c0,2.4-2.1,4.2-4.3,4.2c-1.4,0-2.6-0.5-3.4-1.6l-12.4-15.4l-12.4,15.4
		c-0.8,1-2,1.6-3.4,1.6c-2.3,0-4.3-1.9-4.3-4.2c0-1.2,0.4-2.1,1.1-2.9l13.7-16.2l-13.5-16.1c-0.8-0.9-1.1-1.9-1.1-2.8
		c0-2.5,1.8-4.2,4.4-4.2c1.3,0,2.4,0.5,3.2,1.4L189.1,230.9z"/>
	<path id="XMLID_13_" class="st0" d="M242.1,261.1c-6.9,0-12.6-3.6-15.9-8.9v22.9c0,2.7-2,4.9-4.9,4.9c-2.9,0-4.9-2.2-4.9-4.9v-56.1
		c0-2.7,1.7-4.9,4.6-4.9s4.7,2.3,4.7,5v3.5c3.1-5.4,9.3-8.9,16.2-8.9c11.9,0,21.6,9.9,21.6,23.6C263.7,251.7,254,261.1,242.1,261.1z
		 M240.1,221.8c-8.4,0-13.9,7.3-13.9,15.6c0,8.3,5.6,15.6,13.9,15.6c8.4,0,13.8-6.3,13.8-15.6C254,228.1,248.5,221.8,240.1,221.8z"
		/>
	<path id="XMLID_16_" class="st0" d="M314.9,255.8c0,2.7-1.9,4.9-4.9,4.9c-2.9,0-4.7-2.2-4.7-4.9v-2.3c-2.9,4.3-8.4,7.5-15.1,7.5
		c-14.5,0-22.8-10.5-22.8-23.6c0-12.9,9.3-23.6,23.9-23.6c14.9,0,23.6,9.7,23.6,23.6L314.9,255.8L314.9,255.8z M291.1,222.1
		c-8.3,0-14,6.9-14,15.4c0,8.9,4.9,15.4,14,15.4c8.6,0,14-7.3,14-15.4C305.2,227.9,299.4,222.1,291.1,222.1z"/>
	<path id="XMLID_17_" class="st0" d="M344.1,213.8c12.5,0,21.7,9.5,21.7,21.6v20.4c0,2.7-2.2,4.9-4.9,4.9c-2.7,0-4.9-2.2-4.9-4.9
		v-21.6c0-6.5-5.2-11.6-12-11.6c-6.8,0-11.9,5.1-11.9,11.6v21.6c0,2.7-2.2,4.9-4.9,4.9c-2.7,0-4.9-2.2-4.9-4.9v-20.4
		C322.5,223.3,331.6,213.8,344.1,213.8z"/>
	<path id="XMLID_20_" class="st0" d="M416.3,237.5c0,1.7-0.9,3.3-3.7,3.3h-30.9c0.5,7.1,5.4,12.5,13.9,12.5c5.4,0,8.6-1.9,12-5.1
		c0.8-0.8,2-1.6,3.2-1.6c2.2,0,4,1.6,4,4c0,1-0.5,2-1.2,2.8c-3.9,4.5-10.9,7.5-18.4,7.5c-15.4,0-23.5-10.7-23.5-23.6
		c0-13.5,9.8-23.6,23.1-23.6C407.8,213.8,416.3,224.3,416.3,237.5z M394.8,221.5c-7.1,0-12,5.1-12.9,11.5h25.4
		C406.5,226.8,401.8,221.5,394.8,221.5z"/>
	<path id="XMLID_21_" class="st0" d="M427.6,260.7c-2.9,0-4.9-2.2-4.9-4.9v-60.7c0-2.7,2-4.9,4.9-4.9c2.9,0,4.9,2.2,4.9,4.9v60.7
		C432.5,258.5,430.5,260.7,427.6,260.7z"/>
</g>
</svg>
