<svg height="123" viewBox="0 0 123 123" width="123" xmlns="http://www.w3.org/2000/svg" xmlns:xlink="http://www.w3.org/1999/xlink"><linearGradient id="a" x1="100%" x2="0%" y1="50%" y2="50%"><stop offset="0" stop-color="#2ca69d"/><stop offset="1" stop-color="#2be3d6"/></linearGradient><g fill="none" fill-rule="evenodd" stroke-width="3.744" transform="translate(12 39)"><g stroke="url(#a)"><path d="m94.2150243 19.1962161c-1.6416948-3.0478233-8.3522699-3.0478233-20.1317255 0-.7263934.1879474-3.9297105-6.1416668-3.5978867-7.0080036.9604439-2.50755909 15.0106552-1.3885087 17.8615003-.6782976 2.3919819.5958977-.5943004-1.1388777-8.9588472-5.20432631l-.0000028.00000592c-1.5777242-.76682654-2.8111804-2.09656405-3.457485-3.72736962-1.4075159-3.55155309-6.9240025-3.43385799-16.5494596.35308532-11.1208172 4.37526274-30.0287156 11.70485119-56.72369516 21.98876539l-.00000258-.0000067c-.95105144.366381-1.65543357 1.1846871-1.87621676 2.1796689l-.6412557 2.8898834c-.11198318.5046634.20634709 1.0045543.71101055 1.1165375.15056229.0334092.30704713.0290971.45554107-.0125529l18.73030128-5.2535394c.4977307-.1396052 1.0143935.1507129 1.1539987.6484435.0230772.0822767.0347789.1673259.0347789.2527776v3.8297902c0 .5511847-.3846957 1.0276194-.9235097 1.1437406l-19.74900765 4.2561571c-.37900229.0816798-.62002986.4551363-.53835014.8341386.00449006.0208343.00992658.0414534.01629267.0617931l1.82648642 5.8356312c.42783815 1.3669445 1.69410634 2.2974593 3.12644114 2.2974593l80.94018056-.0000048c7.5629292 0 13.775129-5.9743353 14.0702526-13.5315041.124135-3.1786896-1.8023119-7.2694472-5.7793397-12.2722726z"/><path d="m85.9484778 39.3455497c5.9963234-2.0181649 8.3942483-5.6307303 7.1937747-10.8376963" stroke-linecap="round"/><path d="m28.2330529 29.3973324 26.8026522-5.869744c1.6010577-.3506297 3.0211145-1.2688736 3.9978059-2.5850806 1.4331525-1.9313422 2.1294655-3.5298887 2.0889391-4.7956394-.0504738-1.5764305-1.2435048-2.6244642-3.5790931-3.1441012l-.0000025.0000115c-.3453886-.0768443-.7054833-.0542278-1.0385428.065228l-25.4672764 9.1341434c-1.8399164.659908-3.1502053 2.3012512-3.386115 4.2416424l-.265414 2.1830676c-.0467918.3848698.2272745.7348008.6121444.7815927.078369.009528.1577838.0057685.2349022-.0111204z"/></g><g stroke-linecap="round"><path d="m76.5807963 17.1989529 5.1522248-5.1832461" stroke="#2cb6ac"/><path d="m84.0733069 17.0024983 4.956946-4.9867915" stroke="#2bada3"/></g></g></svg>