<?xml version="1.0" encoding="UTF-8"?>
<svg width="1495px" height="914px" viewBox="0 0 1495 914" version="1.1" xmlns="http://www.w3.org/2000/svg" xmlns:xlink="http://www.w3.org/1999/xlink">
    <!-- Generator: Sketch 50.2 (55047) - http://www.bohemiancoding.com/sketch -->
    <title>bullet-train-illustration</title>
    <desc>Created with Sketch.</desc>
    <defs>
        <linearGradient x1="50%" y1="100%" x2="50%" y2="0%" id="linearGradient-1">
            <stop stop-color="#E6E9F0" offset="0%"></stop>
            <stop stop-color="#EEF1F5" offset="100%"></stop>
        </linearGradient>
        <linearGradient x1="100%" y1="50%" x2="0%" y2="50%" id="linearGradient-2">
            <stop stop-color="#2CA69D" offset="0%"></stop>
            <stop stop-color="#2BE3D6" offset="100%"></stop>
        </linearGradient>
    </defs>
    <g id="Page-1" stroke="none" stroke-width="1" fill="none" fill-rule="evenodd">
        <g id="2-copy" transform="translate(-221.000000, -81.000000)">
            <g id="bullet-train-illustration" transform="translate(221.000000, 54.000000)">
                <path d="M689.987717,52.6184432 C836.430569,-45.4130402 1382.74617,216.134991 1367.82823,314.024605 C1352.91028,411.91422 1292.38936,818.188717 1144.86187,833.377046 C997.33438,848.565375 649.430589,717.767107 542.218269,586.271228 C435.005949,454.77535 543.544865,150.649927 689.987717,52.6184432 Z" id="Rectangle-3" fill="#FFFFFF"></path>
                <polygon id="track" fill="#545E75" points="1410 77 1495 126 84 941 0 892"></polygon>
                <g id="train" transform="translate(598.000000, 173.000000)">
                    <path d="M415.591436,52.5206252 L461.794267,79.2607827 C465.140277,81.1973056 466.282892,85.4796445 464.346369,88.8256546 C463.729222,89.8919887 462.841567,90.776549 461.773083,91.3899677 L170.203922,258.78048 L101.49449,219.279061 L391.607426,52.4861472 C399.03514,48.2157755 408.17603,48.2289159 415.591436,52.5206252 Z" id="top" fill="url(#linearGradient-1)"></path>
                    <path d="M202.236786,107.68992 L499.811466,277.180764 L436.587006,313.683423 C434.445685,314.919715 431.81099,314.93462 429.655818,313.722634 L133.527354,147.191338 L202.236786,107.68992 Z" id="right" fill="url(#linearGradient-2)" transform="translate(316.669410, 211.155583) rotate(-60.000000) translate(-316.669410, -211.155583) "></path>
                    <path d="M102.542604,219.403029 L171.252036,258.904448 C155.96604,316.248862 145.327758,350.109053 139.337191,360.48502 C134.956736,368.07219 127.438507,372.841654 116.782503,374.793414 L116.782503,374.793415 C109.396633,376.146216 101.946927,372.772087 98.0923222,366.328239 L33.8331715,258.904448 L102.542604,219.403029 Z" id="left" fill="url(#linearGradient-2)" transform="translate(102.542604, 297.605199) rotate(60.000000) translate(-102.542604, -297.605199) "></path>
                </g>
                <g id="features" transform="translate(639.000000, 0.000000)">
                    <path d="M421.022581,500.593925 L481.16606,534.897299 C482.417168,535.61088 482.85292,537.203575 482.139339,538.454683 C481.909163,538.858248 481.575356,539.192997 481.172442,539.424311 L412.396686,578.908605 C410.426075,580.039936 408.003771,580.043351 406.029978,578.91758 L345.886499,544.614207 C344.635391,543.900626 344.199639,542.307931 344.913219,541.056822 C345.143396,540.653258 345.477203,540.318509 345.880117,540.087195 L414.655873,500.602901 C416.626484,499.47157 419.048788,499.468154 421.022581,500.593925 Z" id="Background" fill="url(#linearGradient-1)" transform="translate(413.526279, 539.755753) rotate(60.000000) translate(-413.526279, -539.755753) "></path>
                    <path d="M86.6373175,225.593925 L146.780797,259.897299 C148.031905,260.61088 148.467657,262.203575 147.754076,263.454683 C147.523899,263.858248 147.190093,264.192997 146.787179,264.424311 L78.0114226,303.908605 C76.0408114,305.039936 73.618508,305.043351 71.6447148,303.91758 L11.5012356,269.614207 C10.2501274,268.900626 9.81437532,267.307931 10.5279562,266.056822 C10.7581329,265.653258 11.0919393,265.318509 11.4948533,265.087195 L80.2706097,225.602901 C82.2412209,224.47157 84.6635243,224.468154 86.6373175,225.593925 Z" id="Background" fill="url(#linearGradient-1)" transform="translate(79.141016, 264.755753) rotate(60.000000) translate(-79.141016, -264.755753) "></path>
                    <path d="M313.875556,553.054423 L354.152381,576.227733 C354.98466,576.706585 355.271168,577.769466 354.792316,578.601744 C354.640069,578.86636 354.420829,579.086222 354.156646,579.239218 L308.103544,605.909796 C306.782715,606.674723 305.154168,606.677029 303.831178,605.915846 L263.554353,582.742536 C262.722074,582.263684 262.435566,581.200803 262.914418,580.368525 C263.066665,580.103909 263.285905,579.884047 263.550088,579.731052 L309.60319,553.060473 C310.924019,552.295546 312.552567,552.29324 313.875556,553.054423 Z" id="Background" fill="url(#linearGradient-2)" transform="translate(308.853367, 579.485135) rotate(60.000000) translate(-308.853367, -579.485135) "></path>
                    <path d="M73.5407839,261.176312 L94.5896183,273.359574 C96.6258573,274.538168 97.3211158,277.144305 96.1425216,279.180544 C95.7722431,279.820269 95.2418831,280.352641 94.6035654,280.72534 L37.3094854,314.177989 C35.5854145,315.184633 33.4537529,315.188669 31.7258823,314.188561 L4.63985511,298.510916 C2.60361614,297.332321 1.90835763,294.726184 3.08695178,292.689945 C3.45723036,292.050221 3.98759027,291.517848 4.62590804,291.14515 L55.8960717,261.209722 C61.3442982,258.028633 68.0805498,258.015877 73.5407839,261.176312 Z" id="Background" fill="url(#linearGradient-2)" transform="translate(49.614737, 285.935245) rotate(60.000000) translate(-49.614737, -285.935245) "></path>
                    <path d="M293.426162,47.5205689 L353.60434,82.1878679 C355.245788,83.133469 355.809883,85.2306863 354.864281,86.8721337 C354.564139,87.393144 354.13231,87.8261008 353.612084,88.1276006 L263.651864,140.264549 C261.044287,141.775785 257.828288,141.779978 255.21678,140.275547 L195.038601,105.608247 C193.397154,104.662646 192.833059,102.565429 193.77866,100.923982 C194.078802,100.402971 194.510632,99.9700147 195.030858,99.6685148 L284.991078,47.531566 C287.598654,46.0203304 290.814653,46.0161376 293.426162,47.5205689 Z" id="Background" fill="url(#linearGradient-2)" transform="translate(274.321471, 93.898058) rotate(60.000000) translate(-274.321471, -93.898058) "></path>
                    <path d="M222.476319,69.2796511 L263.623221,45.365647 C264.918577,44.6128043 266.574824,45.0597797 267.322553,46.3639945 C267.562156,46.7819183 267.687311,47.2563775 267.685239,47.7389264 L267.193421,162.260984 C267.180196,165.340385 265.543087,168.180858 262.894209,169.720349 L221.747307,193.634353 C220.451951,194.387196 218.795704,193.94022 218.047975,192.636006 C217.808372,192.218082 217.683217,191.743622 217.685289,191.261074 L218.177107,76.7390157 C218.190332,73.6596151 219.827441,70.8191417 222.476319,69.2796511 Z" id="Background" fill="url(#linearGradient-1)" transform="translate(242.685264, 119.500000) scale(-1, 1) translate(-242.685264, -119.500000) "></path>
                </g>
            </g>
        </g>
    </g>
</svg>