<?xml version="1.0" encoding="UTF-8"?>
<svg width="123px" height="123px" viewBox="0 0 123 123" version="1.1" xmlns="http://www.w3.org/2000/svg" xmlns:xlink="http://www.w3.org/1999/xlink">
    <!-- Generator: Sketch 50.2 (55047) - http://www.bohemiancoding.com/sketch -->
    <title>bullet-train copy 9</title>
    <desc>Created with Sketch.</desc>
    <defs>
        <linearGradient x1="100%" y1="50%" x2="0%" y2="50%" id="linearGradient-1">
            <stop stop-color="#2CA69D" offset="0%"></stop>
            <stop stop-color="#2BE3D6" offset="100%"></stop>
        </linearGradient>
    </defs>
    <g id="bullet-train-copy-9" stroke="none" stroke-width="1" fill="none" fill-rule="evenodd">
        <g id="Group-4" transform="translate(12.000000, 39.000000)" stroke-width="3.744">
            <path d="M94.2150243,19.1962161 C92.5733295,16.1483928 85.8627544,16.1483928 74.0832988,19.1962161 C73.3569054,19.3841635 70.1535883,13.0545493 70.4854121,12.1882125 C71.445856,9.68065341 85.4960673,10.7997038 88.3469124,11.5099149 C90.7388943,12.1058126 87.752612,10.3710372 79.3880652,6.30558859 L79.3880624,6.30559451 C77.8103382,5.53876797 76.576882,4.20903046 75.9305774,2.57822489 C74.5230615,-0.973328204 69.0065749,-0.855633098 59.3811178,2.93131021 C48.2603006,7.30657295 29.3524022,14.6361614 2.65742264,24.9200756 L2.65742006,24.9200689 C1.70636862,25.2864499 1.00198649,26.104756 0.781203295,27.0997378 L0.139947598,29.9896212 C0.0279644235,30.4942846 0.346294691,30.9941755 0.850958152,31.1061587 C1.00152044,31.1395679 1.15800528,31.1352558 1.30649922,31.0936058 L20.0368005,25.8400664 C20.5345312,25.7004612 21.051194,25.9907793 21.1907992,26.4885099 C21.2138764,26.5707866 21.2255781,26.6558358 21.2255781,26.7412875 L21.2255781,30.5710777 C21.2255781,31.1222624 20.8408824,31.5986971 20.3020684,31.7148183 L0.55306075,35.9709754 C0.174058463,36.0526552 -0.0669691059,36.4261117 0.0147106084,36.805114 C0.0192006669,36.8259483 0.0246371896,36.8465674 0.031003282,36.8669071 L1.8574897,42.7025383 C2.28532785,44.0694828 3.55159604,44.9999976 4.98393084,44.9999976 L85.9241114,44.9999928 C93.4870406,44.9999928 99.6992404,39.0256575 99.994364,31.4684887 C99.994364,31.4684887 99.994364,31.4684887 99.994364,31.4684887 C100.118499,28.2897991 98.1920521,24.1990415 94.2150243,19.1962161 Z" id="Path-8" stroke="url(#linearGradient-1)"></path>
            <path d="M85.9484778,39.3455497 C91.9448012,37.3273848 94.3427261,33.7148194 93.1422525,28.5078534" id="Path-9" stroke="url(#linearGradient-1)" stroke-linecap="round"></path>
            <path d="M28.2330529,29.3973324 L55.0357051,23.5275884 C56.6367628,23.1769587 58.0568196,22.2587148 59.033511,20.9425078 C60.4666635,19.0111656 61.1629765,17.4126191 61.1224501,16.1468684 C61.0719763,14.5704379 59.8789453,13.5224042 57.543357,13.0027672 L57.5433545,13.0027787 C57.1979659,12.9259344 56.8378712,12.9485509 56.5048117,13.0680067 L31.0375353,22.2021501 C29.1976189,22.8620581 27.88733,24.5034013 27.6514203,26.4437925 L27.3860063,28.6268601 C27.3392145,29.0117299 27.6132808,29.3616609 27.9981507,29.4084528 C28.0765197,29.4179808 28.1559345,29.4142213 28.2330529,29.3973324 Z" id="Path-10" stroke="url(#linearGradient-1)"></path>
            <path d="M76.5807963,17.1989529 L81.7330211,12.0157068" id="Path-7" stroke="#2CB6AC" stroke-linecap="round"></path>
            <path d="M84.0733069,17.0024983 L89.0302529,12.0157068" id="Path-7-Copy" stroke="#2BADA3" stroke-linecap="round"></path>
        </g>
    </g>
</svg>