<svg height="41" viewBox="0 0 317 41" width="317" xmlns="http://www.w3.org/2000/svg" xmlns:xlink="http://www.w3.org/1999/xlink"><linearGradient id="a" x1="100%" x2="0%" y1="50%" y2="50%"><stop offset="0" stop-color="#2ca69d"/><stop offset="1" stop-color="#2be3d6"/></linearGradient><g fill="none" fill-rule="evenodd" transform="translate(2 -2.447154)"><path d="m120.455 32.425752c0 1.2750064-.254997 2.3941619-.765 3.3575-.510003.9633382-1.211246 1.7708301-2.10375 2.4225-.892504.65167-1.926661 1.1474983-3.1025 1.4875s-2.429577.51-3.76125.51h-14.5775v-30.175h16.15c1.048339 0 1.997496.2266644 2.8475.68s1.572497 1.0412464 2.1675 1.76375 1.055415 1.5441621 1.38125 2.465c.325835.920838.48875 1.8487454.48875 2.78375 0 1.4733407-.36833 2.8545769-1.105 4.14375s-1.813326 2.2454136-3.23 2.86875c1.728342.5100026 3.095412 1.4237434 4.10125 2.74125s1.50875 2.9679068 1.50875 4.95125zm-5.9075-1.105c0-.538336-.092082-1.0554142-.27625-1.55125s-.432082-.9279148-.74375-1.29625c-.311668-.3683351-.679998-.6587489-1.105-.87125-.425002-.212501-.892497-.31875-1.4025-.31875h-9.01v7.9475h8.7125c.538336 0 1.041248-.0991656 1.50875-.2975.467502-.1983343.871248-.4745815 1.21125-.82875.340002-.3541684.609166-.7720809.8075-1.25375.198334-.481669.2975-.9916639.2975-1.53zm-12.5375-16.2775v7.6075h7.82c.991672 0 1.83458-.3399966 2.52875-1.02s1.04125-1.614994 1.04125-2.805c0-1.1616724-.318747-2.0824966-.95625-2.7625s-1.423745-1.02-2.35875-1.02zm28.628653 25.585c-2.295011 0-4.037494-.7366593-5.2275-2.21-1.190005-1.4733407-1.785-3.6549855-1.785-6.545v-13.94h5.695v12.7075c0 3.4283505 1.232488 5.1425 3.6975 5.1425 1.105006 0 2.174579-.3329133 3.20875-.99875 1.034172-.6658366 1.877081-1.6787432 2.52875-3.03875v-13.8125h5.695v15.725c0 .595003.106249 1.0199988.31875 1.275.212502.2550013.559581.3966666 1.04125.425v4.845c-.566669.1133339-1.041248.1841666-1.42375.2125-.382501.0283335-.729581.0425-1.04125.0425-1.020005 0-1.848746-.2337476-2.48625-.70125-.637503-.4675023-1.012916-1.1120792-1.12625-1.93375l-.1275-1.785c-.991671 1.5300077-2.266658 2.6774962-3.825 3.4425-1.558341.7650039-3.27249 1.1475-5.1425 1.1475zm18.768654-31.44999997h5.695v23.88499997c0 .8216708.198331 1.4591644.595 1.9125s.96333.68 1.7.68c.340002 0 .715415-.0566661 1.12625-.17s.800415-.2549991 1.16875-.425l.765 4.335c-.765004.3683352-1.657495.6516657-2.6775.85-1.020005.1983344-1.940829.2975-2.7625.2975-1.785009 0-3.166245-.4745786-4.14375-1.42375s-1.46625-2.3020745-1.46625-4.05875zm12.818653 0h5.695v23.88499997c0 .8216708.198332 1.4591644.595 1.9125.396669.4533356.96333.68 1.7.68.340002 0 .715415-.0566661 1.12625-.17.410836-.1133339.800415-.2549991 1.16875-.425l.765 4.335c-.765003.3683352-1.657494.6516657-2.6775.85-1.020005.1983344-1.940829.2975-2.7625.2975-1.785008 0-3.166245-.4745786-4.14375-1.42375-.977504-.9491714-1.46625-2.3020745-1.46625-4.05875zm23.188654 31.44999997c-1.785009 0-3.399993-.3045803-4.845-.91375s-2.677495-1.4379114-3.6975-2.48625c-1.020005-1.0483385-1.806247-2.2666597-2.35875-3.655-.552503-1.3883402-.82875-2.8474923-.82875-4.3775 0-1.5866746.269164-3.081243.8075-4.48375s1.317495-2.6349947 2.3375-3.6975 2.259576-1.9054135 3.71875-2.52875c1.459174-.6233364 3.095408-.935 4.90875-.935s3.43541.3116636 4.86625.935c1.43084.6233365 2.649162 1.4591615 3.655 2.5075 1.005838 1.0483386 1.770831 2.2666598 2.295 3.655.524169 1.3883403.78625 2.8333259.78625 4.335 0 .3683352-.007083.7224983-.02125 1.0625s-.049583.6233322-.10625.85h-17.2125c.085.8783378.297498 1.6574966.6375 2.3375s.779164 1.260831 1.3175 1.7425c.538336.4816691 1.147497.8499988 1.8275 1.105.680003.2550013 1.38833.3825 2.125.3825 1.133339 0 2.202912-.2762472 3.20875-.82875 1.005838-.5525027 1.692915-1.2820788 2.06125-2.18875l4.8875 1.36c-.821671 1.7000085-2.132074 3.0954112-3.93125 4.18625s-3.945404 1.63625-6.43875 1.63625zm5.78-13.43c-.141667-1.671675-.757911-3.0104116-1.84875-4.01625-1.090839-1.0058383-2.415409-1.50875-3.97375-1.50875-.765004 0-1.480413.134582-2.14625.40375s-1.253747.644581-1.76375 1.12625c-.510003.4816691-.927915 1.0624966-1.25375 1.7425s-.517083 1.4308293-.57375 2.2525zm21.871153 11.8575c-.765003.3400017-1.699994.6799983-2.805 1.02-1.105005.3400017-2.26666.51-3.485.51-.793337 0-1.537079-.0991656-2.23125-.2975-.69417-.1983343-1.30333-.5170811-1.8275-.95625-.524169-.4391688-.942081-1.0058298-1.25375-1.7-.311668-.6941701-.4675-1.5370783-.4675-2.52875v-12.7925h-2.9325v-4.3775h2.9325v-7.225h5.695v7.225h4.675v4.3775h-4.675v10.88c0 .7933373.205415 1.3529151.61625 1.67875.410836.325835.913748.48875 1.50875.48875.595003 0 1.175831-.0991656 1.7425-.2975.56667-.1983343 1.019999-.3683326 1.36-.51zm33.797307-23.885h-9.6475v25.0325h-5.8225v-25.0325h-9.6475v-5.1425h25.1175zm11.118654 7.6925c-1.728342.0283335-3.272493.3612468-4.6325.99875s-2.337497 1.5937437-2.9325 2.86875v13.4725h-5.695v-22.27h5.2275v4.76c.396669-.7650038.864164-1.4520803 1.4025-2.06125s1.119164-1.1404144 1.7425-1.59375 1.253747-.8004154 1.89125-1.04125c.637503-.2408345 1.253747-.36125 1.84875-.36125h.70125c.155834 0 .304583.0141666.44625.0425zm8.313653 17.765c-1.076672 0-2.082495-.1770815-3.0175-.53125-.935004-.3541684-1.742496-.8499968-2.4225-1.4875-.680003-.6375032-1.211248-1.3812457-1.59375-2.23125-.382501-.8500042-.57375-1.7849949-.57375-2.805 0-1.0483385.233748-2.0187455.70125-2.91125.467503-.8925044 1.119163-1.6504135 1.955-2.27375.835838-.6233364 1.834578-1.1120815 2.99625-1.46625 1.161673-.3541684 2.43666-.53125 3.825-.53125.991672 0 1.962079.0849992 2.91125.255.949172.1700009 1.79208.4108318 2.52875.7225v-1.275c0-1.4733407-.417912-2.6066627-1.25375-3.4-.835837-.7933373-2.075408-1.19-3.71875-1.19-1.190005 0-2.351661.2124979-3.485.6375-1.133339.4250022-2.294994 1.0483293-3.485 1.87l-1.7425-3.6125c2.861681-1.8983428 5.949984-2.8475 9.265-2.8475 3.201683 0 5.687908.7862422 7.45875 2.35875 1.770843 1.5725079 2.65625 3.8462352 2.65625 6.82125v6.9275c0 .595003.106249 1.0199988.31875 1.275.212502.2550013.559581.3966666 1.04125.425v4.845c-.963338.1983344-1.799163.2975-2.5075.2975-1.076672 0-1.905413-.2408309-2.48625-.7225-.580836-.481669-.942082-1.1191627-1.08375-1.9125l-.1275-1.2325c-.991671 1.3033399-2.195826 2.2949966-3.6125 2.975-1.416673.6800034-2.932491 1.02-4.5475 1.02zm1.615-4.165c.963339 0 1.877079-.1699983 2.74125-.51s1.537081-.7933305 2.01875-1.36c.623337-.481669.935-1.019997.935-1.615v-2.55c-.680003-.2550012-1.416662-.4604159-2.21-.61625-.793337-.1558341-1.558329-.23375-2.295-.23375-1.47334 0-2.677495.3329134-3.6125.99875-.935004.6658367-1.4025 1.5087449-1.4025 2.52875 0 .9633382.36833 1.7637468 1.105 2.40125.736671.6375032 1.643328.95625 2.72.95625zm16.048654 3.74v-22.27h5.695v22.27zm0-25.3725v-5.65249997h5.695v5.65249997zm30.881153 25.3725h-5.695v-12.495c0-1.7850089-.311663-3.0883292-.935-3.91-.623336-.8216707-1.487494-1.2325-2.5925-1.2325-.566669 0-1.147497.1133322-1.7425.34s-1.15458.5454146-1.67875.95625c-.524169.4108354-.998747.8995805-1.42375 1.46625-.425002.5666695-.736665 1.1899966-.935 1.87v13.005h-5.695v-22.27h5.1425v4.1225c.821671-1.4166737 2.011659-2.5216627 3.57-3.315 1.558342-.7933373 3.314991-1.19 5.27-1.19 1.388341 0 2.521663.2549975 3.4.765.878338.5100026 1.558331 1.1758293 2.04 1.9975.48167.8216708.814583 1.7566615.99875 2.805.184168 1.0483386.27625 2.110828.27625 3.1875z" fill="#fff"/><g stroke-width="3.12" transform="translate(0 4.03252)"><g stroke="url(#a)"><path d="m78.1984701 15.911877c-1.3626066-2.5263619-6.932384-2.5263619-16.7093321 0-.6029065.155791-3.2616597-5.0908702-2.9862459-5.8089829.7971684-2.07853315 12.4588438-1.15094452 14.8250452-.5622456 1.9845108.4937362-.4911872-.94281552-7.4270938-4.30965523l.000001-.000002c-1.3128518-.63728678-2.340102-1.74226042-2.8801128-3.09802685-1.1708904-2.93967067-5.7490251-2.840731-13.734404.296819-9.2295104 3.62638406-24.9212232 9.70122188-47.07513815 18.22451348l.00000125.0000033c-.79281112.3050188-1.38015139.9868563-1.56439962 1.816096l-.52917158 2.3816245c-.09343658.4205268.17172246.8371765.59224931.9306131.12544441.0278724.25583202.02432.37957268-.0103415l15.53739741-4.3522436c.4148154-.1161956.8452849.1258836.9614805.5406989.0191834.0684843.0289103.1392705.0289103.2103908v3.1650404c0 .4594198-.3207151.8565062-.7698499.9531729l-16.38538976 3.5266052c-.31585369.0679807-.5167944.37914-.44881364.6949937.00376357.0174864.00832715.034791.01367635.0518592l1.51198336 4.824431c.35684664 1.1386249 1.41182741 1.9135702 2.60506095 1.9135702l67.18788254.0000075c6.2690738 0 11.418586-4.9520831 11.6635424-11.2163693.1030318-2.634838-1.4959189-6.0256954-4.796852-10.1725722z"/><path d="m71.3372365 32.6137999c4.9769485-1.672871 6.9672262-4.6673516 5.9708331-8.9834419" stroke-linecap="round"/><path d="m23.4366039 24.36696 22.2357436-4.8631836c1.3349958-.2919774 2.5191046-1.0574986 3.3333393-2.1549895 1.1841938-1.5961513 1.7595094-2.9176631 1.7259467-3.9645353-.0418827-1.3063882-1.0316147-2.1750031-2.9691961-2.6058449l-.0000027.0000123c-.2875521-.0639403-.5873316-.0451569-.8646533.0541769l-21.1394866 7.571945c-1.5253114.5463507-2.6118194 1.9065687-2.807616 3.5149026l-.2197786 1.80533c-.0390439.3207188.1892987.612364.5100174.6514079.0652834.0079475.1314396.00483.1956863-.0092214z"/></g><g stroke-linecap="round"><path d="m63.5620609 14.2563317 4.2763466-4.29642875" stroke="#2cb6ac"/><path d="m69.7808447 14.0934891 4.1142652-4.13358615" stroke="#2bada3"/></g></g></g></svg>