<?xml version="1.0" encoding="iso-8859-1"?>
<!-- Generator: Adobe Illustrator 19.0.0, SVG Export Plug-In . SVG Version: 6.00 Build 0)  -->
<svg xmlns="http://www.w3.org/2000/svg" xmlns:xlink="http://www.w3.org/1999/xlink" version="1.1" id="Capa_1" x="0px" y="0px" viewBox="0 0 470 470" style="enable-background:new 0 0 470 470;" xml:space="preserve" width="512px" height="512px">
<g>
	<path d="M211.683,151.084c-2.086-3.58-6.679-4.788-10.256-2.705l-51.978,30.281c-3.579,2.085-4.79,6.677-2.705,10.256   c1.394,2.392,3.906,3.726,6.487,3.726c1.282,0,2.581-0.329,3.769-1.021l51.978-30.281   C212.557,159.255,213.768,154.663,211.683,151.084z" fill="#26a49a"/>
	<path d="M261.021,161.34l51.978,30.28c1.188,0.691,2.486,1.021,3.769,1.021c2.581,0,5.094-1.334,6.487-3.726   c2.085-3.579,0.874-8.171-2.705-10.256l-51.978-30.28c-3.579-2.084-8.17-0.875-10.256,2.705   C256.231,154.663,257.442,159.255,261.021,161.34z" fill="#26a49a"/>
	<path d="M149.551,356.399l51.877,30.223c1.188,0.692,2.486,1.021,3.769,1.021c2.581,0,5.094-1.334,6.487-3.726   c2.085-3.579,0.874-8.171-2.705-10.256l-51.877-30.223c-3.579-2.088-8.17-0.874-10.256,2.705   C144.761,349.723,145.972,354.314,149.551,356.399z" fill="#26a49a"/>
	<path d="M465.642,267.424c-0.006-0.597-0.084-1.196-0.235-1.787c-0.019-0.072-0.04-0.142-0.061-0.213   c-0.063-0.218-0.137-0.434-0.221-0.649c-0.029-0.076-0.057-0.151-0.089-0.226c-0.102-0.238-0.217-0.472-0.346-0.703   c-0.018-0.032-0.032-0.067-0.051-0.099c-0.16-0.277-0.323-0.515-0.494-0.745c-0.04-0.054-0.084-0.104-0.126-0.156   c-0.148-0.187-0.303-0.366-0.466-0.536c-0.053-0.055-0.106-0.109-0.161-0.163c-0.185-0.181-0.376-0.352-0.577-0.511   c-0.034-0.027-0.065-0.056-0.099-0.082c-0.243-0.186-0.495-0.356-0.756-0.51c-0.039-0.026-107.888-62.857-107.888-62.857V72.5   c0-0.026-0.005-0.05-0.005-0.076c-0.006-0.597-0.084-1.196-0.235-1.787c-0.019-0.072-0.04-0.142-0.061-0.213   c-0.063-0.218-0.137-0.434-0.221-0.649c-0.029-0.076-0.057-0.151-0.089-0.226c-0.102-0.238-0.217-0.472-0.346-0.703   c-0.018-0.032-0.032-0.067-0.051-0.099c-0.16-0.278-0.323-0.516-0.495-0.746c-0.039-0.052-0.082-0.101-0.122-0.152   c-0.15-0.19-0.307-0.371-0.471-0.542c-0.051-0.053-0.102-0.105-0.155-0.156c-0.188-0.185-0.384-0.36-0.589-0.522   c-0.029-0.023-0.056-0.049-0.086-0.071c-0.245-0.189-0.5-0.36-0.764-0.516C350.349,66.02,238.775,1.02,238.775,1.02   c-2.334-1.359-5.217-1.359-7.551,0l-111.573,65c-0.297,0.178-0.554,0.351-0.801,0.54c-0.027,0.021-0.052,0.044-0.079,0.066   c-0.207,0.164-0.405,0.34-0.595,0.527c-0.052,0.051-0.102,0.102-0.153,0.155c-0.165,0.172-0.322,0.354-0.472,0.544   c-0.04,0.051-0.083,0.099-0.122,0.151c-0.172,0.23-0.335,0.468-0.483,0.722c-0.031,0.056-0.045,0.09-0.063,0.123   c-0.129,0.231-0.244,0.465-0.346,0.703c-0.032,0.074-0.06,0.15-0.089,0.226c-0.084,0.214-0.158,0.43-0.221,0.649   c-0.021,0.071-0.042,0.141-0.06,0.213c-0.152,0.591-0.23,1.19-0.235,1.787c0,0.025-0.005,0.05-0.005,0.076v125.689L8.078,261.02   c-0.3,0.18-0.553,0.35-0.796,0.537c-0.033,0.026-0.064,0.054-0.097,0.08c-0.201,0.16-0.393,0.331-0.578,0.512   c-0.054,0.053-0.108,0.107-0.16,0.162c-0.163,0.17-0.318,0.349-0.466,0.536c-0.042,0.053-0.086,0.103-0.126,0.157   c-0.171,0.229-0.334,0.467-0.482,0.72c-0.031,0.056-0.045,0.09-0.063,0.123c-0.129,0.231-0.244,0.465-0.346,0.703   c-0.032,0.074-0.06,0.15-0.089,0.226c-0.084,0.214-0.158,0.43-0.221,0.649c-0.021,0.071-0.042,0.141-0.06,0.213   c-0.152,0.591-0.23,1.19-0.235,1.787c0,0.025-0.005,0.05-0.005,0.076v130c0,2.669,1.419,5.137,3.725,6.48l111.573,65   c0.021,0.012,0.044,0.02,0.065,0.032c0.268,0.153,0.545,0.293,0.833,0.413c0.28,0.116,0.562,0.208,0.85,0.289   c0.071,0.02,0.143,0.037,0.215,0.055c0.225,0.056,0.454,0.101,0.687,0.136c0.077,0.012,0.152,0.026,0.229,0.035   c0.295,0.035,0.593,0.059,0.897,0.059s0.603-0.023,0.897-0.059c0.077-0.009,0.152-0.023,0.229-0.035   c0.233-0.035,0.462-0.08,0.687-0.136c0.072-0.018,0.144-0.035,0.215-0.055c0.288-0.081,0.57-0.173,0.843-0.286   c0.294-0.122,0.571-0.262,0.839-0.416c0.021-0.012,0.044-0.02,0.065-0.032L235,406.18l107.798,62.801   c0.021,0.012,0.044,0.02,0.065,0.032c0.268,0.153,0.544,0.293,0.832,0.413c0.281,0.116,0.562,0.208,0.849,0.289   c0.072,0.02,0.144,0.038,0.216,0.056c0.225,0.056,0.453,0.101,0.686,0.136c0.077,0.012,0.153,0.026,0.23,0.035   c0.295,0.035,0.593,0.059,0.897,0.059s0.602-0.023,0.897-0.059c0.077-0.009,0.153-0.023,0.23-0.035   c0.232-0.035,0.461-0.08,0.686-0.136c0.072-0.018,0.144-0.035,0.216-0.056c0.287-0.081,0.569-0.173,0.841-0.286   c0.296-0.123,0.572-0.263,0.84-0.416c0.021-0.012,0.044-0.02,0.065-0.032l111.573-65c2.306-1.344,3.725-3.812,3.725-6.48v-130   C465.646,267.474,465.642,267.45,465.642,267.424z M443.247,267.5l-96.674,56.32l-96.674-56.32l96.674-56.32L443.247,267.5z    M130.927,85.549l96.573,56.261v112.64l-96.573-56.261V85.549z M339.073,198.189L242.5,254.451v-112.64l96.573-56.261V198.189z    M227.5,393.189l-96.573,56.262v-112.64l96.573-56.261V393.189z M242.5,280.549l96.573,56.261v112.64L242.5,393.189V280.549z    M235,16.18l96.674,56.32L235,128.82L138.326,72.5L235,16.18z M123.427,211.18l96.674,56.32l-96.674,56.32L26.753,267.5   L123.427,211.18z M19.354,280.549l96.573,56.261v112.64l-96.573-56.262V280.549z M354.073,449.451v-112.64l96.573-56.261v112.64   L354.073,449.451z" fill="#26a49a"/>
	<path d="M323.156,346.142c-2.086-3.58-6.678-4.788-10.256-2.705l-51.877,30.223c-3.579,2.085-4.79,6.677-2.705,10.256   c1.394,2.392,3.906,3.726,6.487,3.726c1.282,0,2.581-0.329,3.769-1.021l51.877-30.223   C324.03,354.313,325.241,349.721,323.156,346.142z" fill="#26a49a"/>
	<path d="M100.109,346.084c-2.086-3.58-6.679-4.788-10.256-2.705l-51.877,30.223c-3.579,2.085-4.79,6.677-2.705,10.256   c1.394,2.392,3.906,3.726,6.487,3.726c1.282,0,2.581-0.329,3.769-1.021l51.877-30.223   C100.983,354.255,102.194,349.663,100.109,346.084z" fill="#26a49a"/>
	<path d="M432.024,373.603l-51.676-30.105c-3.579-2.087-8.171-0.875-10.256,2.705c-2.085,3.579-0.874,8.171,2.705,10.256   l51.676,30.105c1.188,0.692,2.486,1.021,3.769,1.021c2.581,0,5.094-1.334,6.487-3.726   C436.814,380.279,435.604,375.688,432.024,373.603z" fill="#26a49a"/>
</g>
<g>
</g>
<g>
</g>
<g>
</g>
<g>
</g>
<g>
</g>
<g>
</g>
<g>
</g>
<g>
</g>
<g>
</g>
<g>
</g>
<g>
</g>
<g>
</g>
<g>
</g>
<g>
</g>
<g>
</g>
</svg>
