<?xml version="1.0" encoding="iso-8859-1"?>
<!-- Generator: Adobe Illustrator 19.0.0, SVG Export Plug-In . SVG Version: 6.00 Build 0)  -->
<svg xmlns="http://www.w3.org/2000/svg" xmlns:xlink="http://www.w3.org/1999/xlink" version="1.1" id="Layer_1" x="0px" y="0px" viewBox="0 0 480 480" style="enable-background:new 0 0 480 480;" xml:space="preserve" width="512px" height="512px">
<g>
	<g>
		<path d="M470.68,322.771c-5.904-4.984-13.704-7.072-21.304-5.752L296,343.699v-54.752c11.824-0.72,33.592-4.136,48.608-19.144    c21.04-21.024,19.392-55.552,19.304-57.008c-0.216-4.08-3.472-7.328-7.544-7.544c-1.448-0.128-35.992-1.728-57.008,19.296    c-1.2,1.2-2.304,2.456-3.36,3.728v-27.272c11.824-0.72,33.592-4.136,48.608-19.144c21.04-21.024,19.392-55.552,19.304-57.008    c-0.216-4.08-3.472-7.328-7.544-7.544c-1.448-0.112-35.992-1.728-57.008,19.304c-1.2,1.2-2.304,2.456-3.36,3.728v-23.76    l44.896-43.968C348.056,65.603,352,56.259,352,46.323c0-9.944-3.944-19.288-11.104-26.296c0-0.008-0.008-0.008-0.008-0.008    C326.328,5.763,302.704,5.659,288,19.691c-14.712-14.04-38.328-13.928-52.896,0.336C227.944,27.035,224,36.379,224,46.323    c0,9.936,3.944,19.28,11.112,26.296L280,116.571v23.76c-1.056-1.28-2.16-2.528-3.36-3.728    c-21.016-21.04-55.56-19.416-57.008-19.304c-4.08,0.216-7.328,3.472-7.544,7.544c-0.088,1.456-1.736,35.984,19.304,57.008    c15.016,15.024,36.784,18.432,48.608,19.144v27.272c-1.056-1.28-2.16-2.536-3.36-3.728    c-21.024-21.024-55.544-19.416-57.008-19.296c-4.08,0.216-7.328,3.472-7.544,7.544c-0.088,1.456-1.736,35.984,19.304,57.008    c15.016,15.024,36.784,18.432,48.608,19.144v44.952l-34.344-34.344c-1.496-1.496-3.528-2.336-5.656-2.336h-80c0-4.424-3.576-8-8-8    h-32H0v16h112v112H0v16h120h32c4.424,0,8-3.576,8-8h22.112l85.528,42.768c3.696,1.848,7.704,2.776,11.696,2.776    c4.552,0,9.096-1.192,13.168-3.568l174.528-101.816c8-4.664,12.968-13.312,12.968-22.576    C480,335.051,476.6,327.755,470.68,322.771z M310.672,235.851c10.784-10.784,27.392-13.68,37.08-14.424    c-0.728,9.664-3.608,26.208-14.456,37.056c-10.784,10.784-27.392,13.68-37.072,14.424    C296.952,263.243,299.832,246.699,310.672,235.851z M310.672,147.915c10.784-10.792,27.392-13.688,37.08-14.432    c-0.728,9.664-3.608,26.208-14.456,37.056c-10.776,10.776-27.36,13.672-37.048,14.424    C297,175.275,299.896,158.691,310.672,147.915z M242.704,170.539c-10.792-10.784-13.688-27.392-14.432-37.08    c9.664,0.728,26.208,3.608,37.056,14.456c10.776,10.776,13.672,27.36,14.424,37.048    C270.064,184.211,253.48,181.315,242.704,170.539z M242.704,258.483c-10.792-10.784-13.688-27.4-14.432-37.08    c9.664,0.728,26.208,3.6,37.056,14.448c10.776,10.784,13.672,27.368,14.424,37.056    C270.064,272.155,253.48,269.259,242.704,258.483z M144,417.211h-16v-112h16V417.211z M246.304,61.187    C242.24,57.203,240,51.923,240,46.323c0-5.608,2.24-10.888,6.296-14.864c4.256-4.168,9.84-6.248,15.432-6.248    c5.576,0,11.168,2.088,15.424,6.248l5.256,5.152c3.112,3.048,8.08,3.048,11.184,0l5.256-5.152c8.504-8.32,22.336-8.32,30.84-0.008    C333.76,35.427,336,40.715,336,46.323c0,5.6-2.24,10.88-6.296,14.856L288,102.019L246.304,61.187z M458.968,351.547    l-174.52,101.816c-2.96,1.736-6.568,1.84-9.648,0.304l-87.216-43.608c-1.112-0.56-2.344-0.848-3.584-0.848h-24v-96h76.688    l63.032,63.032c2.72,2.72,4.28,6.488,4.28,10.344c0,8.064-6.56,14.624-14.624,14.624c-3.848,0-7.624-1.56-10.344-4.28    l-41.376-41.376l-11.312,11.312l41.376,41.376c5.784,5.784,13.472,8.968,21.656,8.968c16.88,0,30.624-13.744,30.624-30.624    c0-8.176-3.184-15.872-8.968-21.656l-6.48-6.48l147.552-25.664c2.976-0.536,5.976,0.296,8.272,2.232    c2.304,1.936,3.624,4.768,3.624,7.768C464,346.379,462.072,349.739,458.968,351.547z" fill="#51e5d9"/>
	</g>
</g>
<g>
	<g>
		<path d="M168,33.211h-16c0,13.232-10.768,24-24,24v16c13.232,0,24,10.768,24,24h16c0-13.232,10.768-24,24-24v-16    C178.768,57.211,168,46.443,168,33.211z M160,73.459c-2.336-3.144-5.104-5.912-8.248-8.248c3.144-2.336,5.912-5.104,8.248-8.248    c2.336,3.144,5.104,5.912,8.248,8.248C165.104,67.547,162.336,70.315,160,73.459z" fill="#51e5d9"/>
	</g>
</g>
<g>
	<g>
		<path d="M120,105.211h-16c0,13.232-10.768,24-24,24v16c13.232,0,24,10.768,24,24h16c0-13.232,10.768-24,24-24v-16    C130.768,129.211,120,118.443,120,105.211z M112,145.459c-2.336-3.144-5.104-5.912-8.248-8.248    c3.144-2.336,5.912-5.104,8.248-8.248c2.336,3.144,5.104,5.912,8.248,8.248C117.104,139.547,114.336,142.315,112,145.459z" fill="#51e5d9"/>
	</g>
</g>
<g>
	<g>
		<path d="M424,65.211h-16c0,13.232-10.768,24-24,24v16c13.232,0,24,10.768,24,24h16c0-13.232,10.768-24,24-24v-16    C434.768,89.211,424,78.443,424,65.211z M416,105.459c-2.336-3.144-5.104-5.912-8.248-8.248c3.144-2.336,5.912-5.104,8.248-8.248    c2.336,3.144,5.104,5.912,8.248,8.248C421.104,99.547,418.336,102.315,416,105.459z" fill="#51e5d9"/>
	</g>
</g>
<g>
	<g>
		<rect x="144" y="257.211" width="16" height="16" fill="#51e5d9"/>
	</g>
</g>
<g>
	<g>
		<rect x="112" y="257.211" width="16" height="16" fill="#51e5d9"/>
	</g>
</g>
<g>
	<g>
		<rect x="80" y="257.211" width="16" height="16" fill="#51e5d9"/>
	</g>
</g>
<g>
</g>
<g>
</g>
<g>
</g>
<g>
</g>
<g>
</g>
<g>
</g>
<g>
</g>
<g>
</g>
<g>
</g>
<g>
</g>
<g>
</g>
<g>
</g>
<g>
</g>
<g>
</g>
<g>
</g>
</svg>
