<?xml version="1.0" encoding="UTF-8"?>
<svg width="315px" height="315px" viewBox="0 0 315 315" version="1.1" xmlns="http://www.w3.org/2000/svg" xmlns:xlink="http://www.w3.org/1999/xlink">
    <!-- Generator: Sketch 51.3 (57544) - http://www.bohemiancoding.com/sketch -->
    <title>play-button</title>
    <desc>Created with Sketch.</desc>
    <defs></defs>
    <g id="Page-1" stroke="none" stroke-width="1" fill="none" fill-rule="evenodd">
        <g id="play-button" fill="#2CD6CA" fill-rule="nonzero">
            <path d="M293.002,78.53 C249.646,3.435 153.618,-22.296 78.529,21.068 C3.434,64.418 -22.298,160.442 21.066,235.534 C64.416,310.629 160.441,336.364 235.531,293.004 C310.627,249.639 336.371,153.62 293.002,78.53 Z M219.834,265.801 C159.767,300.493 82.94,279.907 48.258,219.828 C13.568,159.761 34.161,82.935 94.23,48.26 C154.301,13.57 231.124,34.154 265.808,94.231 C300.493,154.307 279.906,231.117 219.834,265.801 Z M213.555,150.652 L131.341,102.703 C123.849,98.329 117.806,101.826 117.848,110.492 L118.269,205.666 C118.307,214.33 124.424,217.857 131.938,213.517 L213.523,166.414 C221.029,162.082 221.045,155.026 213.555,150.652 Z" id="Shape"></path>
        </g>
    </g>
</svg>