<?xml version="1.0" encoding="UTF-8"?>
<svg width="32px" height="32px" viewBox="0 0 32 32" version="1.1" xmlns="http://www.w3.org/2000/svg" xmlns:xlink="http://www.w3.org/1999/xlink">
    <!-- Generator: Sketch 51.3 (57544) - http://www.bohemiancoding.com/sketch -->
    <title>plus-button</title>
    <desc>Created with Sketch.</desc>
    <defs></defs>
    <g id="Page-1" stroke="none" stroke-width="1" fill="none" fill-rule="evenodd">
        <g id="plus-button" fill="#2CD6CA" fill-rule="nonzero">
            <path d="M15.529,31.059 C6.966,31.059 0,24.092 0,15.529 C0,6.966 6.966,0 15.529,0 C24.092,0 31.058,6.966 31.058,15.529 C31.059,24.092 24.092,31.059 15.529,31.059 Z M15.529,1.774 C7.944,1.774 1.774,7.945 1.774,15.529 C1.774,23.113 7.944,29.283 15.529,29.283 C23.113,29.283 29.283,23.113 29.283,15.529 C29.283,7.945 23.113,1.774 15.529,1.774 Z" id="Shape"></path>
            <path d="M21.652,16.416 L9.406,16.416 C8.916,16.416 8.518,16.02 8.518,15.529 C8.518,15.039 8.915,14.641 9.406,14.641 L21.652,14.641 C22.142,14.641 22.539,15.039 22.539,15.529 C22.539,16.02 22.143,16.416 21.652,16.416 Z" id="Shape"></path>
            <path d="M15.529,22.539 C15.039,22.539 14.641,22.142 14.641,21.652 L14.641,9.406 C14.641,8.916 15.039,8.518 15.529,8.518 C16.019,8.518 16.416,8.916 16.416,9.406 L16.416,21.652 C16.416,22.143 16.02,22.539 15.529,22.539 Z" id="Shape"></path>
        </g>
    </g>
</svg>