<svg width="1024" height="500" xmlns="http://www.w3.org/2000/svg">
 <!-- Created with Method Draw - http://github.com/duopixel/Method-Draw/ -->
 <defs>
  <linearGradient y2="0%" y1="100%" x2="NaN" x1="NaN" id="svg_21">
   <stop stop-color="#e6e9f0" offset="0"/>
   <stop stop-color="#eef1f5" offset="1"/>
  </linearGradient>
 </defs>
 <g>
  <title>background</title>
  <rect fill="#22354a" id="canvas_background" height="502" width="1026" y="-1" x="-1"/>
  <g display="none" overflow="visible" y="0" x="0" height="100%" width="100%" id="canvasGrid">
   <rect fill="url(#gridpattern)" stroke-width="0" y="0" x="0" height="100%" width="100%"/>
  </g>
 </g>
 <g>
  <title>Layer 1</title>
  <linearGradient y2="50%" y1="50%" x2="0%" x1="100%" id="svg_4">
   <stop stop-color="#2ca69d" offset="0"/>
   <stop stop-color="#2be3d6" offset="1"/>
  </linearGradient>
  <linearGradient y2="0%" y1="100%" x2="50%" x1="50%" id="svg_18">
   <stop stop-color="#e6e9f0" offset="0"/>
   <stop stop-color="#eef1f5" offset="1"/>
  </linearGradient>
  <linearGradient y2="50%" y1="50%" x2="0%" x1="100%" id="svg_19">
   <stop stop-color="#2ca69d" offset="0"/>
   <stop stop-color="#2be3d6" offset="1"/>
  </linearGradient>
  <g stroke="null" id="svg_37">
   <g stroke="null" transform="matrix(0.7642680207638047,0,0,0.7854141377778248,-30676.232283473666,-15353.34100757303) " id="svg_22" fill-rule="evenodd" fill="none">
    <path stroke="null" id="svg_23" fill="#fff" d="m41056.637069,19418.12248c146.442852,-98.031483 692.758453,163.516548 677.840513,261.406162c-14.91795,97.889615 -75.43887,504.164112 -222.96636,519.352441s-495.431281,-115.609939 -602.643601,-247.105818c-107.21232,-131.495878 1.326596,-435.621301 147.769448,-533.652785z"/>
    <path stroke="null" id="svg_24" fill="#545e75" d="m41776.649352,19442.504037l85,49l-1411,815l-84,-49l1410,-815z"/>
    <g stroke="null" id="svg_25">
     <path stroke="null" id="svg_26" fill="url(#svg_18)" d="m41380.240788,19591.024662l46.202831,26.740158c3.34601,1.936523 4.488625,6.218861 2.552102,9.564872c-0.617147,1.066334 -1.504802,1.950894 -2.573286,2.564313l-291.569161,167.390512l-68.709432,-39.501419l290.112936,-166.792914c7.427714,-4.270371 16.568604,-4.257231 23.98401,0.034478z"/>
     <g stroke="null" id="svg_27" fill="url(#svg_19)">
      <path stroke="null" id="svg_28" d="m41134.498557,19797.028349l295.570716,-172.961809l0,73.005318c0,2.472584 -1.30444,4.76175 -3.431636,6.02219l-292.284564,173.189123l0.145485,-79.254822z"/>
      <path stroke="null" id="svg_29" d="m41134.917023,19797.008151l0.145484,79.254823c-57.304717,15.434146 -91.947644,23.151219 -103.928778,23.15122c-8.760909,0 -16.650501,-4.126246 -23.668777,-12.378736l-0.000001,0.000001c-4.864495,-5.719951 -5.667267,-13.85865 -2.014033,-20.418759l60.902157,-109.361952l68.563948,39.753404z"/>
     </g>
    </g>
    <path stroke="null" id="svg_30" fill="url(#svg_18)" d="m41456.838921,19892.170863l0.364146,69.237467c0.007575,1.440282 -1.153864,2.614002 -2.594145,2.621576c-0.464586,0.002444 -0.92139,-0.119267 -1.323171,-0.352543l-68.58228,-39.819405c-1.965067,-1.140934 -3.179176,-3.237003 -3.191127,-5.509243l-0.364147,-69.237467c-0.007575,-1.440282 1.153864,-2.614002 2.594146,-2.621578c0.464585,-0.002443 0.92139,0.119268 1.323171,0.352545l68.58228,39.819405c1.965067,1.140934 3.179177,3.237002 3.191127,5.509243z"/>
    <path stroke="null" id="svg_31" fill="url(#svg_18)" d="m41122.453657,19617.170863l0.364147,69.237468c0.007575,1.440282 -1.153864,2.614002 -2.594145,2.621576c-0.464586,0.002443 -0.92139,-0.119267 -1.323171,-0.352543l-68.58228,-39.819405c-1.965067,-1.140935 -3.179176,-3.237003 -3.191127,-5.509243l-0.364147,-69.237467c-0.007575,-1.440283 1.153863,-2.614002 2.594146,-2.621578c0.464585,-0.002443 0.921389,0.119267 1.32317,0.352544l68.58228,39.819405c1.965067,1.140934 3.179177,3.237002 3.191127,5.509243l0,-0.000001z"/>
    <g stroke="null" id="svg_32" fill="url(#svg_19)">
     <path stroke="null" id="svg_33" d="m41339.903484,19936.123159l0.069737,46.467408c0.001442,0.960201 -0.775786,1.739764 -1.735986,1.741205c-0.305288,0.000458 -0.605314,-0.079478 -0.869904,-0.231769l-46.123949,-26.547867c-1.322861,-0.761408 -2.139131,-2.170618 -2.141422,-3.696952l-0.069737,-46.467408c-0.001442,-0.960201 0.775786,-1.739764 1.735986,-1.741205c0.305288,-0.000458 0.605314,0.079478 0.869903,0.23177l46.12395,26.547867c1.322861,0.761408 2.139132,2.170619 2.141422,3.696952z"/>
     <path stroke="null" id="svg_34" d="m41088.668979,19659.78038l-0.026597,24.320456c-0.002573,2.352732 -1.911924,4.257912 -4.264656,4.255339c-0.739158,-0.000809 -1.465385,-0.193928 -2.107311,-0.560378l-57.617884,-32.891804c-1.733815,-0.989767 -2.803141,-2.833822 -2.800957,-4.830256l0.034225,-31.29601c0.002574,-2.352732 1.911926,-4.257912 4.264657,-4.255339c0.739156,0.000808 1.465385,0.193927 2.10731,0.560377l51.559923,29.43355c5.479017,3.127758 8.85819,8.955145 8.85129,15.264064z"/>
     <path stroke="null" id="svg_35" d="m41329.687252,19452.758497l0.066328,69.44948c0.00181,1.894336 -1.532386,3.431465 -3.426723,3.433274c-0.601279,0.000574 -1.192145,-0.156922 -1.713365,-0.456701l-90.132031,-51.839362c-2.612557,-1.50261 -4.224188,-4.28565 -4.227067,-7.299498l-0.066327,-69.449482c-0.001809,-1.894335 1.532387,-3.431464 3.426722,-3.433273c0.60128,-0.000575 1.192146,0.156923 1.713365,0.456702l90.132032,51.839361c2.612557,1.502609 4.224187,4.28565 4.227066,7.299498z"/>
    </g>
    <path stroke="null" id="svg_36" fill="url(#svg_21)" d="m41268.543561,19434.783688l-41.146902,-23.914004c-1.295356,-0.752843 -2.951603,-0.305867 -3.699332,0.998347c-0.239603,0.417924 -0.364758,0.892383 -0.362686,1.374932l0.491818,114.522058c0.013225,3.079401 1.650334,5.919874 4.299212,7.459365l41.146902,23.914004c1.295356,0.752843 2.951603,0.305867 3.699332,-0.998347c0.239603,-0.417924 0.364758,-0.892384 0.362686,-1.374932l-0.491818,-114.522058c-0.013225,-3.079401 -1.650334,-5.919874 -4.299212,-7.459365z"/>
   </g>
  </g>
  <text stroke="#000" xml:space="preserve" text-anchor="start" font-family="Helvetica, Arial, sans-serif" font-size="48" id="svg_38" y="66" x="27" stroke-width="0" fill="#ffffff">Release features with</text>
  <text stroke="#000" xml:space="preserve" text-anchor="start" font-family="Helvetica, Arial, sans-serif" font-size="48" id="svg_40" y="133" x="27" stroke-width="0" fill="#ffffff">Confidence</text>
  <text stroke="#000" xml:space="preserve" text-anchor="start" font-family="Helvetica, Arial, sans-serif" font-size="18" id="svg_41" y="236" x="27" stroke-width="0" fill="#ffffff">across web, mobile and server side applications. Deliver true</text>
  <text style="cursor: move;" font-weight="normal" xml:space="preserve" text-anchor="start" font-family="Helvetica, Arial, sans-serif" font-size="18" id="svg_45" y="204.4375" x="27" stroke-width="0" stroke="#000" fill="#ffffff">Bullet Train lets you manage</text>
  <text style="cursor: move;" stroke="#000" font-weight="bold" xml:space="preserve" text-anchor="start" font-family="Helvetica, Arial, sans-serif" font-size="18" id="svg_47" y="204.4375" x="258.732599" stroke-width="0" fill="#ffffff">feature flags</text>
  <text font-weight="normal" xml:space="preserve" text-anchor="start" font-family="Helvetica, Arial, sans-serif" font-size="18" id="svg_48" y="204.4375" x="370" stroke-width="0" stroke="#000" fill="#ffffff">and</text>
  <text font-weight="bold" xml:space="preserve" text-anchor="start" font-family="Helvetica, Arial, sans-serif" font-size="18" id="svg_49" y="204.4375" x="404.534801" stroke-width="0" stroke="#000" fill="#ffffff">remote config</text>
  <text xml:space="preserve" text-anchor="start" font-family="Helvetica, Arial, sans-serif" font-size="18" id="svg_51" y="269.4375" x="27" stroke-width="0" stroke="#000" fill="#ffffff">Continuous Integration. Get builds out faster. Control who has</text>
  <text xml:space="preserve" text-anchor="start" font-family="Helvetica, Arial, sans-serif" font-size="18" id="svg_52" y="301.4375" x="27" stroke-width="0" stroke="#000" fill="#ffffff">access to new features.</text>
 </g>
</svg>