<?xml version="1.0" encoding="UTF-8"?>
<svg width="108px" height="108px" viewBox="0 0 108 108" version="1.1" xmlns="http://www.w3.org/2000/svg" xmlns:xlink="http://www.w3.org/1999/xlink">
    <!-- Generator: Sketch 54.1 (76490) - https://sketchapp.com -->
    <title>adaptive-icon</title>
    <desc>Created with Sketch.</desc>
    <defs>
        <linearGradient x1="100%" y1="50%" x2="0%" y2="50%" id="linearGradient-1">
            <stop stop-color="#2CA69D" offset="0%"></stop>
            <stop stop-color="#2BE3D6" offset="100%"></stop>
        </linearGradient>
        <linearGradient x1="100%" y1="50%" x2="0%" y2="50%" id="linearGradient-2">
            <stop stop-color="#2CA69D" offset="0%"></stop>
            <stop stop-color="#2BE3D6" offset="100%"></stop>
        </linearGradient>
        <linearGradient x1="100%" y1="50%" x2="0%" y2="50%" id="linearGradient-3">
            <stop stop-color="#2CA69D" offset="0%"></stop>
            <stop stop-color="#2BE3D6" offset="100%"></stop>
        </linearGradient>
    </defs>
    <g id="adaptive-icon" stroke="none" stroke-width="1" fill="none" fill-rule="evenodd">
        <g id="foreground" stroke-width="2.05335">
            <g>
                <g id="bullet-train-1" transform="translate(27.000000, 34.000000)">
                    <g id="Group" transform="translate(0.000000, 6.993682)">
                        <g id="Group-4">
                            <path d="M51.7489876,10.5128736 C50.8472626,8.84372268 47.1613805,8.84372268 40.6913413,10.5128736 C40.2923591,10.6158036 38.53289,7.14936872 38.7151492,6.67491636 C39.2426871,5.30164304 46.9599723,5.91449481 48.5258408,6.30344436 C49.8397649,6.62981284 48.199181,5.67959993 43.6040892,3.45280564 L43.6040887,3.45280673 C42.7385023,3.03334115 42.0612813,2.30506244 41.7057271,1.41132181 C40.9322103,-0.5330321 37.9022854,-0.468358676 32.6159522,1.60534209 C26.5075991,4.0015014 16.1219641,8.01565009 1.45904715,13.6477882 L1.4590462,13.6477857 C0.937056764,13.8482858 0.550223258,14.2969548 0.428751564,14.8427734 L0.0770790812,16.4229717 C0.01549113,16.6997098 0.18990479,16.9739772 0.466642894,17.0355652 C0.549181602,17.0539341 0.634979825,17.0516293 0.716413316,17.0288556 L11.0068678,14.1510205 C11.2799003,14.0746641 11.563136,14.2341015 11.6394925,14.507134 C11.6520791,14.5521409 11.6584609,14.5986558 11.6584609,14.6453896 L11.6584609,16.7412945 C11.6584609,17.0437303 11.4472809,17.3051091 11.1515945,17.3686463 L0.303806346,19.6996217 C0.0959202497,19.7442923 -0.0363920396,19.94903 0.00827857632,20.1569161 C0.0107731057,20.168525 0.0138033475,20.1800123 0.0173595845,20.1913412 L1.02013931,23.3858277 C1.25524376,24.1347837 1.94935629,24.644403 2.73434629,24.644403 L47.2168723,24.6443964 C51.3588855,24.6443964 54.7612688,21.3726656 54.9233749,17.2338258 C54.9233749,17.2338258 54.9233749,17.2338258 54.9233749,17.2338258 C54.9915577,15.4930055 53.9334286,13.2526881 51.7489876,10.5128736 Z" id="Path-8" stroke="url(#linearGradient-1)"></path>
                            <path d="M47.2084654,21.5477253 C50.5020342,20.4424703 51.8191297,18.4640365 51.1597519,15.6124237" id="Path-9" stroke="url(#linearGradient-2)" stroke-linecap="round"></path>
                            <path d="M15.5065448,16.0997409 L30.2326948,12.884188 C31.1097276,12.6926823 31.8879869,12.1906292 32.4240419,11.4705557 C33.211886,10.4122581 33.5946736,9.53636879 33.5724046,8.84288787 C33.5446706,7.97922147 32.888892,7.40515384 31.6050689,7.120685 L31.6050697,7.12068142 C31.4162199,7.07883618 31.2193905,7.09119177 31.0372561,7.15632483 L17.0436064,12.1605914 C16.0356874,12.5210331 15.3175136,13.4194745 15.1879492,14.4820336 L15.0422397,15.6769998 C15.0165028,15.8880679 15.1667435,16.0800361 15.3778115,16.1057729 C15.4207567,16.1110095 15.4642774,16.1089703 15.5065448,16.0997409 Z" id="Path-10" stroke="url(#linearGradient-3)"></path>
                            <path d="M42.0631285,9.41906553 L44.8930638,6.58044304" id="Path-7" stroke="#2CB6AC" stroke-linecap="round"></path>
                            <path d="M46.1785002,9.3114765 L48.9011756,6.58044304" id="Path-7-Copy" stroke="#2BADA3" stroke-linecap="round"></path>
                        </g>
                    </g>
                </g>
            </g>
        </g>
    </g>
</svg>