<svg height="210" viewBox="0 0 450 210" width="450" xmlns="http://www.w3.org/2000/svg" xmlns:xlink="http://www.w3.org/1999/xlink"><linearGradient id="a" x1="100%" x2="0%" y1="50%" y2="50%"><stop offset="0" stop-color="#2ca69d"/><stop offset="1" stop-color="#2be3d6"/></linearGradient><g fill="none" fill-rule="evenodd" stroke-width="16.224" transform="translate(9 9)"><g stroke="url(#a)"><path d="m407.008905 81.9038553c-7.092121-13.0040462-36.081806-13.0040462-86.969054 0-3.13802.8019091-16.97635-26.2044448-15.542871-29.9008154 4.149118-10.6989187 64.846031-5.9243038 77.161681-2.8940697 10.327099 2.5409558-2.551746-4.8502419-38.636534-22.1735933v-.0000007c-6.824243-3.2761385-12.181823-8.9789724-15.025955-15.9942621-6.118847-15.09264225-29.942094-14.57070577-71.469743 1.5658094-48.036001 18.6654836-129.703888 49.9329786-245.0036616 93.8024855l.0000003.000001c-4.13433677 1.573041-7.20406875 5.11487-8.17372333 9.430767l-2.72344962 12.121976c-.49103643 2.185585.88266686 4.355416 3.06825217 4.846452.65128697.146325 1.3286211.129645 1.971916-.048561l80.88991848-22.408181c2.1587655-.598022 4.393584.66721 4.9916067 2.825975.0976901.352646.1472092.71689.1472092 1.082816v16.202299c0 2.393304-1.6736227 4.460653-4.014487 4.95891l-85.25894593 18.147521c-1.64323835.349767-2.69180466 1.965416-2.3420384 3.608654.02051631.096388.04570429.191722.07547484.285665l7.83658966 24.728824c1.8694033 5.899013 7.34459733 9.907463 13.53273313 9.907463l350.3894344.000005c32.273525 0 58.787286-25.486118 60.062395-57.734443.536261-13.562409-7.785988-31.016308-24.966748-52.3616967z"/><path d="m371.297424 167.874346c25.904117-8.610837 36.263153-24.02445 31.077107-46.240838" stroke-linecap="round"/><path d="m121.977219 125.426362 115.793094-25.045472c6.918333-1.4964019 13.064758-5.4380692 17.310881-11.1013715 6.153068-8.2067052 9.142332-15.0021096 8.96779-20.3862132-.218216-6.7313267-5.379948-11.2046577-15.485197-13.4199929l-.000001.0000054c-1.478763-.3241837-3.018737-.228096-4.445732.2773943l-110.175676 39.0279745c-7.859562 2.7841244-13.469526 9.7725174-14.488242 18.0481614l-1.139226 9.25461c-.205262 1.667464.980087 3.185608 2.647552 3.39087.338438.041661.681472.026122 1.014757-.045966z"/></g><path d="m330.82904 73.382199 22.257611-22.1151833" stroke="#2cb6ac" stroke-linecap="round"/><path d="m363.196686 72.5439927 21.414006-21.276977" stroke="#2bada3" stroke-linecap="round"/></g></svg>