<?xml version="1.0" encoding="UTF-8"?>
<svg width="450px" height="210px" viewBox="0 0 450 210" version="1.1" xmlns="http://www.w3.org/2000/svg" xmlns:xlink="http://www.w3.org/1999/xlink">
    <!-- Generator: Sketch 52.6 (67491) - http://www.bohemiancoding.com/sketch -->
    <title>bullet-train-1</title>
    <desc>Created with Sketch.</desc>
    <defs>
        <linearGradient x1="100%" y1="50%" x2="0%" y2="50%" id="linearGradient-1">
            <stop stop-color="#2CA69D" offset="0%"></stop>
            <stop stop-color="#2BE3D6" offset="100%"></stop>
        </linearGradient>
    </defs>
    <g id="Page-1" stroke="none" stroke-width="1" fill="none" fill-rule="evenodd">
        <g id="Icon" transform="translate(-31.000000, -151.000000)" stroke-width="16.224">
            <g id="bullet-train-1" transform="translate(40.000000, 160.000000)">
                <path d="M407.008905,81.9038553 C399.916784,68.8998091 370.927099,68.8998091 320.039851,81.9038553 C316.901831,82.7057644 303.063501,55.6994105 304.49698,52.0030399 C308.646098,41.3041212 369.343011,46.0787361 381.658661,49.1089702 C391.98576,51.649926 379.106915,44.2587283 343.022127,26.9353769 L343.022127,26.9353762 C336.197884,23.6592377 330.840304,17.9564038 327.996172,10.9411141 C321.877325,-4.15152815 298.054078,-3.62959167 256.526429,12.5069235 C208.490428,31.1724071 126.822541,62.4399021 11.5227674,106.309409 L11.5227677,106.30941 C7.38843093,107.882451 4.31869895,111.42428 3.34904437,115.740177 L0.625594745,127.862153 C0.134558321,130.047738 1.50826161,132.217569 3.69384692,132.708605 C4.34513389,132.85493 5.02246802,132.83825 5.66576292,132.660044 L86.5556814,110.251863 C88.7144469,109.653841 90.9492654,110.919073 91.5472881,113.077838 C91.6449782,113.430484 91.6944973,113.794728 91.6944973,114.160654 L91.6944973,130.362953 C91.6944973,132.756257 90.0208746,134.823606 87.6800103,135.321863 L2.42106437,153.469384 C0.77782602,153.819151 -0.270740289,155.4348 0.079025967,157.078038 C0.0995422782,157.174426 0.124730262,157.26976 0.154500808,157.363703 L7.99109047,182.092527 C9.86049377,187.99154 15.3356878,191.99999 21.5238236,191.99999 L371.913258,191.999995 C404.186783,191.999995 430.700544,166.513877 431.975653,134.265552 C431.975653,134.265552 431.975653,134.265552 431.975653,134.265552 C432.511914,120.703143 424.189665,103.249244 407.008905,81.9038553 Z" id="Path-8" stroke="url(#linearGradient-1)"></path>
                <path d="M371.297424,167.874346 C397.201541,159.263509 407.560577,143.849896 402.374531,121.633508" id="Path-9" stroke="url(#linearGradient-1)" stroke-linecap="round"></path>
                <path d="M121.977219,125.426362 L237.770313,100.38089 C244.688646,98.8844881 250.835071,94.9428208 255.081194,89.2795185 C261.234262,81.0728133 264.223526,74.2774089 264.048984,68.8933053 C263.830768,62.1619786 258.669036,57.6886476 248.563787,55.4733124 L248.563786,55.4733178 C247.085023,55.1491341 245.545049,55.2452218 244.118054,55.7507121 L133.942378,94.7786866 C126.082816,97.562811 120.472852,104.551204 119.454136,112.826848 L118.31491,122.081458 C118.109648,123.748922 119.294997,125.267066 120.962462,125.472328 C121.3009,125.513989 121.643934,125.49845 121.977219,125.426362 Z" id="Path-10" stroke="url(#linearGradient-1)"></path>
                <path d="M330.82904,73.382199 L353.086651,51.2670157" id="Path-7" stroke="#2CB6AC" stroke-linecap="round"></path>
                <path d="M363.196686,72.5439927 L384.610692,51.2670157" id="Path-7-Copy" stroke="#2BADA3" stroke-linecap="round"></path>
            </g>
        </g>
    </g>
</svg>