<svg height="290" viewBox="0 0 368 290" width="368" xmlns="http://www.w3.org/2000/svg"><g fill="none" fill-rule="evenodd" transform="translate(9 9)"><path d="m349.757817 7.56538462h-137.198916" stroke="#345995" stroke-linecap="round" stroke-linejoin="round" stroke-width="16.22"/><ellipse cx="345.18452" cy="52.666716" fill="#345995" fill-rule="nonzero" rx="13.719892" ry="13.530399"/><path d="m221.705495 52.666716h82.31935" stroke="#345995" stroke-linecap="round" stroke-linejoin="round" stroke-width="16.22"/><ellipse cx="226.278793" cy="97.768047" fill="#345995" fill-rule="nonzero" rx="13.719892" ry="13.530399"/><path d="m349.757817 97.7680473h-82.31935" stroke="#345995" stroke-linecap="round" stroke-linejoin="round" stroke-width="16.22"/><ellipse cx="345.18452" cy="142.869379" fill="#345995" fill-rule="nonzero" rx="13.719892" ry="13.530399"/><g stroke="#345995" stroke-linecap="round" stroke-linejoin="round" stroke-width="16.22"><path d="m221.705495 142.869379h82.31935"/><path d="m185.119118 187.97071h164.638699"/><path d="m0 54.4707692v200.3616458c.34400073 9.778777 8.40969364 17.527426 18.2383367 17.521431h164.1450303c9.727116.012112 17.751988-7.577486 18.238337-17.249077v-19.064769"/><path d="m45.5958418 18.1569231c0-10.02779174 8.1655815-18.1569231 18.2383367-18.1569231h115.4486715"/><path d="m264.455882 236.04h-200.6217035c-10.0727552 0-18.2383367-8.129131-18.2383367-18.156923v-163.4123078"/><path d="m91.1916836 145.255385h72.9533464"/><path d="m91.1916836 90.7846154h45.5958414"/></g></g></svg>