<svg height="45" viewBox="0 0 325 45" width="325" xmlns="http://www.w3.org/2000/svg"><g fill="#4a4a4a" fill-rule="evenodd"><path d="m46.3273381 5.04310345c1.0359713 0 1.8129497-.77586207 1.8129497-1.81034483s-.7769784-1.81034483-1.8129497-1.81034483c-1.0359712 0-1.8129496.77586207-1.8129496 1.81034483s.7769784 1.81034483 1.8129496 1.81034483zm24.086331-4.9137931v13.44827585h-.1294964c-2.3309353-3.362069-5.3093526-4.78448275-8.676259-4.78448275-7.7697842 0-12.3021583 5.56034485-12.3021583 13.18965515 0 7.5 4.7913669 13.1896552 12.3021583 13.1896552 7.7697841 0 12.3021582-5.5603448 12.3021582-13.1896552v-21.72413791zm-8.8057554 31.42241375c-5.5683454 0-8.8057554-4.0086207-8.8057554-9.5689655s2.9784172-9.5689655 8.8057554-9.5689655c4.7913669 0 8.8057554 4.0086207 8.8057554 9.5689655s-3.1079137 9.5689655-8.8057554 9.5689655zm-17.0935252 3.4913793h3.4964029v-26.24999995h-3.4964029zm-4.7913669 0h3.4964029v-34.91379305h-3.4964029zm-13.4676259-26.24999995c-7.5107914 0-12.3021583 5.56034485-12.3021583 13.18965515v.2586207c-1.294964-.7758621-2.8489209-1.2931034-4.53237409-1.9396552-4.01438849-1.2931034-5.30935252-2.3275862-5.30935252-4.525862 0-2.974138 2.71942446-4.2672414 5.30935252-4.2672414 1.81294959 0 3.62589929.6465517 4.53237409 2.3275862l2.4604317-2.0689655c-1.8129497-2.19827588-4.1438849-2.97413795-6.99280579-2.97413795-4.4028777 0-8.54676259 2.45689655-8.54676259 7.24137935 0 4.137931 2.71942446 5.6896551 6.21582734 6.8534482 4.40287774 1.4224138 6.47482014 2.0689656 6.47482014 5.0431035 0 2.8448276-2.8489209 4.3965517-5.43884892 4.3965517-2.20143885 0-4.27338129-.9051724-5.30935252-2.8448276l-2.58992805 2.0689655c1.81294964 2.5862069 4.9208633 3.4913793 7.76978417 3.4913793 3.62589932 0 7.12230212-1.5517241 8.28776982-4.6551724 2.2014388 2.8448276 5.5683453 4.6551724 9.971223 4.6551724 7.7697842 0 12.3021583-5.5603448 12.3021583-13.1896551 0-7.5-4.7913669-13.06034485-12.3021583-13.06034485zm0 22.75862065c-5.8273381 0-8.8057554-4.0086207-8.8057554-9.5689655s3.2374101-9.5689655 8.8057554-9.5689655 8.8057554 4.0086207 8.8057554 9.5689655-2.9784173 9.5689655-8.8057554 9.5689655z"/><path d="m160.284173 21.2068966c0-6.8534483-4.402878-12.41379315-12.043166-12.5431035-3.23741 0-6.086331 1.16379311-8.28777 3.1034483v-2.06896554h-7.122302v-6.72413793h-3.496403v6.72413793h-5.568345v2.06896554c-2.071942-1.93965519-4.920863-3.1034483-8.417266-3.1034483-3.366907 0-6.215827 1.16379311-8.28777 3.1034483v-2.06896554h-7.1223021v-6.72413793h-3.7553957v6.72413793h-4.9208633c-1.294964-.64655172-2.7194244-.77586207-4.2733813-.77586207-4.4028777 0-8.5467626 2.45689651-8.5467626 7.24137931 0 4.137931 2.7194245 5.6896552 6.2158274 6.8534483 4.4028777 1.4224138 6.4748201 2.0689655 6.4748201 5.0431034 0 2.8448276-2.8489208 4.3965518-5.4388489 4.3965518-2.2014388 0-4.2733813-.9051725-5.3093525-2.8448276l-2.5899281 2.0689655c1.6834533 2.4568965 4.7913669 3.4913793 7.6402878 3.4913793 4.5323741 0 8.8057554-2.3275862 8.8057554-7.2413793s-3.6258993-6.2068966-7.5107914-7.3706897c-4.0143885-1.2931034-5.3093525-2.3275862-5.3093525-4.525862 0-2.974138 2.7194245-4.1379311 5.3093525-4.1379311 1.8129497 0 3.6258993.6465517 4.5323741 2.3275862l1.1654677-1.0344827h3.7553956v15.2586207c0 4.9137931 2.9784173 6.9827586 7.6402878 6.9827586 2.071942 0 3.884892-.3879311 5.697842-1.1637931 1.553957.775862 3.496403 1.1637931 5.568345 1.1637931 3.366907 0 6.345324-1.4224138 8.676259-4.7844828h.129496v4.3965517h3.496403v-13.1896551c0-3.6206897-1.035971-6.724138-2.848921-9.0517242h4.661871v15.2586207c0 4.9137931 2.978417 6.9827586 7.640288 6.9827586 2.071942 0 4.014388-.387931 5.827338-1.2931034 1.683453.7758621 3.625899 1.2931034 5.827338 1.2931034 4.143885 0 7.769784-1.5517241 10.748201-5.3017241l-2.719424-2.1982759c-1.42446 2.1982759-4.273381 4.2672414-8.028777 4.2672414-4.920863 0-8.805755-4.0086207-9.194245-8.9224138h20.848921zm-59.438849 9.4396551c-.776979-.775862-1.1654679-1.9396551-1.1654679-3.4913793v-14.3534483h6.2158269c-1.942446 2.3275862-2.978417 5.4310345-2.978417 9.0517242 0 3.8793103 1.165468 7.2413793 3.496403 9.6982758-.776978.2586207-1.553957.2586207-2.460432.2586207-1.165467 0-2.330935-.387931-3.107913-1.1637931zm14.3741.9051724c-5.827338 0-8.805755-4.0086207-8.805755-9.5689655s3.23741-9.5689655 8.805755-9.5689655c5.827339 0 8.805756 4.0086207 8.805756 9.5689655s-4.143885 9.5689655-8.805756 9.5689655zm24.345324 0c-.776978.2586207-1.683453.3879311-2.589928.3879311-1.165467 0-2.201439-.3879311-2.978417-1.2931035-.776979-.775862-1.165468-1.9396551-1.165468-3.4913793v-14.3534483h6.215828c-2.071943 2.3275862-3.23741 5.4310345-3.23741 9.0517242-.129497 3.8793103 1.294964 7.2413793 3.755395 9.6982758zm-.129496-11.5086207c0-4.137931 4.143885-8.0172413 8.805755-8.0172413 5.05036 0 8.158274 3.2327586 8.158274 8.0172413z"/><path d="m248.341727 8.79310345c-3.755396 0-6.733813 1.29310345-8.805756 3.36206895v-3.36206895h-3.496403v14.48275865c0 5.5603448-2.071942 8.6637931-7.381295 8.6637931-5.309352 0-7.381295-3.1034483-7.381295-8.6637931v-14.48275865h-3.496402v7.11206895c-1.942447-4.2672414-5.827339-7.11206895-11.136691-7.11206895-2.719425 0-5.179856.77586207-7.122302 2.19827585l.388489-1.81034482c-.776978-.25862069-1.553957-.25862069-2.589928-.25862069-3.23741 0-7.640288.90517242-9.971223 5.17241381-2.071943-3.2327586-5.568345-5.17241381-10.10072-5.17241381-7.510791 0-12.302158 5.56034481-12.302158 13.18965521 0 7.5 4.532374 13.1896551 12.302158 13.1896551 3.366907 0 6.345324-1.4224138 8.676259-4.7844827h.129497v.2586207c0 6.3362069-4.402878 10.2155172-9.453238 10.2155172-3.755395 0-6.604316-2.0689655-8.028777-4.2672414l-2.719424 2.1982759c2.978417 3.75 6.604317 5.3017241 10.748201 5.3017241 7.122303 0 12.820144-4.6551724 12.949641-13.3189655v-10.3448276c0-4.0086207 1.683453-8.0172414 7.640287-8.0172414h.776979c-2.201439 2.3275863-3.496403 5.6896552-3.496403 9.5689656 0 7.5 4.532374 13.1896551 12.302158 13.1896551 5.697842 0 9.582734-2.9741379 11.266187-7.3706896.906475 4.7844827 4.402878 7.3706896 10.748202 7.3706896 3.107913 0 5.568345-.6465517 7.381295-1.9396551v10.7327586h3.496403v-13.8362069h.129496c2.330935 3.362069 5.309353 4.7844827 8.676259 4.7844827 7.769784 0 12.302158-5.5603448 12.302158-13.1896551-.129496-7.5-4.920863-13.06034485-12.431654-13.06034485zm-71.223022 22.75862065c-5.827338 0-8.805755-4.0086207-8.805755-9.5689655s3.23741-9.5689655 8.805755-9.5689655c5.827338 0 8.805755 4.0086207 8.805755 9.5689655s-4.014388 9.5689655-8.805755 9.5689655zm29.52518 0c-5.827338 0-8.805756-4.0086207-8.805756-9.5689655s3.237411-9.5689655 8.805756-9.5689655 8.805755 4.0086207 8.805755 9.5689655-2.978417 9.5689655-8.805755 9.5689655zm41.697842 0c-4.791367 0-8.805756-4.0086207-8.805756-9.5689655s2.978417-9.5689655 8.805756-9.5689655c5.568345 0 8.805755 4.0086207 8.805755 9.5689655s-2.978417 9.5689655-8.805755 9.5689655z"/><path d="m271.88 21h2.6v11.8h7.32v2.2h-9.92zm21.06 10.76h-7l-1.38 3.24h-2.68l6.3-14h2.56l6.32 14h-2.72zm-.86-2.04-2.64-6.12-2.62 6.12zm16.68-2c.773337.2533346 1.386664.6766637 1.84 1.27s.68 1.3299956.68 2.21c0 1.2133394-.466662 2.1499967-1.4 2.81s-2.293324.99-4.08.99h-6.96v-14h6.56c1.653342 0 2.926662.3233301 3.82.97s1.34 1.536661 1.34 2.67c0 .6933368-.159998 1.306664-.48 1.84s-.759997.9466652-1.32 1.24zm-7.32-4.68v3.86h3.68c.906671 0 1.603331-.1633317 2.09-.49s.73-.8033302.73-1.43c0-.6400032-.243331-1.1233317-.73-1.45s-1.183329-.49-2.09-.49zm4.2 9.92c2.013343 0 3.02-.6733266 3.02-2.02s-1.006657-2.02-3.02-2.02h-4.2v4.04zm12.76 2.24c-1.080005 0-2.123328-.1533318-3.13-.46s-1.80333-.7133308-2.39-1.22l.9-2.02c.573336.4533356 1.276663.8233319 2.11 1.11.833338.2866681 1.669996.43 2.51.43 1.040005 0 1.816664-.166665 2.33-.5s.77-.7733306.77-1.32c0-.400002-.143332-.7299987-.43-.99s-.649998-.4633326-1.09-.61-1.039996-.3133324-1.8-.5c-1.066672-.2533346-1.929997-.5066654-2.59-.76s-1.226664-.6499973-1.7-1.19-.71-1.2699954-.71-2.19c0-.7733372.209998-1.4766635.63-2.11s1.053329-1.1366648 1.9-1.51 1.883327-.56 3.11-.56c.853338 0 1.693329.1066656 2.52.32s1.539997.519998 2.14.92l-.82 2.02c-.613336-.3600018-1.25333-.6333324-1.92-.82s-1.31333-.28-1.94-.28c-1.026672 0-1.789998.1733316-2.29.52-.500003.3466684-.75.8066638-.75 1.38 0 .400002.143332.7266654.43.98s.649998.4533326 1.09.6 1.039996.3133324 1.8.5c1.040005.2400012 1.89333.4899987 2.56.75s1.236664.656664 1.71 1.19.71 1.2533288.71 2.16c0 .7733372-.209998 1.4733302-.63 2.1s-1.056662 1.1266648-1.91 1.5-1.893327.56-3.12.56z"/></g></svg>