<?xml version="1.0" encoding="UTF-8"?>
<svg width="363px" height="363px" viewBox="0 0 363 363" version="1.1" xmlns="http://www.w3.org/2000/svg" xmlns:xlink="http://www.w3.org/1999/xlink">
    <!-- Generator: Sketch 52.6 (67491) - http://www.bohemiancoding.com/sketch -->
    <title>mark</title>
    <desc>Created with Sketch.</desc>
    <defs>
        <linearGradient x1="12.4325368%" y1="11.6096683%" x2="78.4871419%" y2="74.3489583%" id="linearGradient-1">
            <stop stop-color="#56E39F" offset="0%"></stop>
            <stop stop-color="#64F195" offset="100%"></stop>
        </linearGradient>
    </defs>
    <g id="coloured" stroke="none" stroke-width="1" fill="none" fill-rule="evenodd">
        <g id="Icon-Copy" transform="translate(-74.000000, -82.000000)">
            <g id="mark" transform="translate(74.000000, 82.000000)">
                <path d="M200.983008,361.966537 C201.018823,361.505694 201.037051,361.040126 201.037051,360.570455 L201.15678,166.877273 L231.32871,195.846591 C238.811827,203.013636 250.904545,203.013636 258.387662,195.846591 C265.870779,188.679545 265.870779,176.995455 258.387662,169.828409 L195.290016,109.420455 C191.757985,105.806818 187.08852,104 181.88027,104 C176.67202,104 171.94269,105.806818 168.470524,109.420455 L105.612338,169.828409 C98.1292207,177.055682 98.1292207,188.679545 105.612338,195.906818 C113.095455,203.073864 125.188173,203.073864 132.67129,195.906818 L162.84322,166.877273 L162.72349,360.570455 C162.72349,361.067391 162.743895,361.559733 162.783947,362.046746 C71.3376362,352.678936 1.15019276e-14,275.420367 0,181.5 L2.84217094e-14,92.61 C2.21579973e-14,41.4629093 41.4629093,3.78172776e-14 92.61,2.84217094e-14 L270.39,2.84217094e-14 C321.537091,1.90261413e-14 363,41.4629093 363,92.61 L363,181.5 C363,275.157636 292.060922,352.246563 200.983008,361.966537 Z" id="Combined-Shape" fill="url(#linearGradient-1)"></path>
                <g id="arrow-up-c" transform="translate(128.000000, 158.000000)"></g>
            </g>
        </g>
    </g>
</svg>