<svg height="363" viewBox="0 0 363 363" width="363" xmlns="http://www.w3.org/2000/svg" xmlns:xlink="http://www.w3.org/1999/xlink"><linearGradient id="a" x1="12.432537%" x2="78.487142%" y1="11.609668%" y2="74.348958%"><stop offset="0" stop-color="#56e39f"/><stop offset="1" stop-color="#64f195"/></linearGradient><path d="m200.983008 361.966537c.035815-.460843.054043-.926411.054043-1.396082l.119729-193.693182 30.17193 28.969318c7.483117 7.167045 19.575835 7.167045 27.058952 0 7.483117-7.167046 7.483117-18.851136 0-26.018182l-63.097646-60.407954c-3.532031-3.613637-8.201496-5.420455-13.409746-5.420455s-9.93758 1.806818-13.409746 5.420455l-62.858186 60.407954c-7.4831173 7.227273-7.4831173 18.851136 0 26.078409 7.483117 7.167046 19.575835 7.167046 27.058952 0l30.17193-29.029545-.11973 193.693182c0 .496936.020405.989278.060457 1.476291-91.4463108-9.36781-162.783947-86.626379-162.783947-180.546746v-88.89c0-51.1470907 41.4629093-92.61 92.61-92.61h177.78c51.147091 0 92.61 41.4629093 92.61 92.61v88.89c0 93.657636-70.939078 170.746563-162.016992 180.466537z" fill="url(#a)" fill-rule="evenodd"/></svg>